General
Complete name                    : F:\Black mask 1996 DVDRip by imkhan -=[TDT]=-\Black mask 1996 DVDRip by imkhan -=[TDT]=-.mkv
Format                           : Matroska
File size                        : 418 MiB
Duration                         : 1h 25mn
Overall bit rate                 : 682 Kbps
Movie name                       : Black mask 1996 DVDRip by imkhan -=[TDT]=-
Encoded date                     : UTC 2010-11-22 15:51:09
Writing application              : mkvmerge v4.2.0 ('No Talking') built on Jul 28 2010 18:38:23
Writing library                  : libebml v1.0.0 + libmatroska v1.0.0
Video
ID                               : 1
Format                           : AVC
Format/Info                      : Advanced Video Codec
Format profile                   : High@L4.0
Format settings, CABAC           : Yes
Format settings, ReFrames        : 3 frames
Muxing mode                      : Container profile=Unknown@4.0
Codec ID                         : V_MPEG4/ISO/AVC
Duration                         : 1h 25mn
Bit rate                         : 540 Kbps
Width                            : 608 pixels
Height                           : 352 pixels
Display aspect ratio             : 16:9
Frame rate                       : 25.000 fps
Resolution                       : 24 bits
Colorimetry                      : 4:2:0
Scan type                        : Progressive
Bits/(Pixel*Frame)               : 0.101
Stream size                      : 332 MiB (79%)
Title                            : imkhan
Writing library                  : x264 core 104 r1683 62997d6
Language                         : Hindi
Audio
ID                               : 2
Format                           : MPEG Audio
Format version                   : Version 1
Format profile                   : Layer 3
Codec ID                         : A_MPEG/L3
Codec ID/Hint                    : MP3
Duration                         : 1h 25mn
Bit rate mode                    : Constant
Bit rate                         : 128 Kbps
Channel(s)                       : 2 channels
Sampling rate                    : 44.1 KHz
Resolution                       : 16 bits
Stream size                      : 78.6 MiB (19%)
Title                            : imkhan
Writing library                  : LAME3.98.2
Language                         : Hindi